<svg width="34" height="39" viewBox="0 0 34 39" fill="none" xmlns="http://www.w3.org/2000/svg">
<path d="M30.343 10.5597C29.8921 10.0023 29.0781 9.9119 28.5165 10.3569C27.955 10.8019 27.8546 11.6169 28.2913 12.1856C30.3056 14.7254 31.3966 17.8777 31.3845 21.1227C31.3863 28.8681 25.2867 35.232 17.5682 35.5379C9.84967 35.8437 3.26827 29.9822 2.66042 22.2609C2.05257 14.5395 7.63533 7.71529 15.3061 6.80309L13.5349 8.32605C13.0081 8.8021 12.9558 9.61236 13.4169 10.1526C13.8779 10.6928 14.6844 10.7661 15.2348 10.3178L19.8117 6.38416C20.1017 6.13505 20.2687 5.77125 20.2687 5.38831C20.2687 5.00536 20.1017 4.64156 19.8117 4.39245L15.2348 0.458849C14.8819 0.13984 14.3841 0.0379372 13.9346 0.192683C13.4852 0.347428 13.1549 0.734464 13.0718 1.20361C12.9887 1.67275 13.166 2.15015 13.5349 2.45056L15.5088 4.1466C6.34888 4.95549 -0.509178 12.9211 0.0296939 22.1254C0.568566 31.3297 8.30901 38.436 17.5004 38.1647C26.6918 37.8934 34.0019 30.3429 33.9999 21.1227C34.0139 17.2873 32.724 13.5615 30.343 10.5597Z" fill="white"/>
<path d="M10.5371 24.8892L12.0986 24.6987V18.4399H10.5181V17.3799L13.9458 16.7578V24.6987L15.5073 24.8892V26H10.5371V24.8892Z" fill="white"/>
<path d="M23.1548 22.4009C23.1548 23.6239 22.8734 24.5527 22.3105 25.1875C21.752 25.818 20.9945 26.1333 20.0381 26.1333C19.0732 26.1333 18.3094 25.818 17.7466 25.1875C17.1838 24.5527 16.9023 23.6239 16.9023 22.4009V20.3633C16.9023 19.1445 17.1816 18.2178 17.7402 17.583C18.3031 16.944 19.0648 16.6245 20.0254 16.6245C20.9818 16.6245 21.7414 16.944 22.3042 17.583C22.8713 18.2178 23.1548 19.1445 23.1548 20.3633V22.4009ZM21.3076 20.1729C21.3076 19.4408 21.1976 18.9054 20.9775 18.5669C20.7575 18.2241 20.4401 18.0527 20.0254 18.0527C19.6064 18.0527 19.2891 18.222 19.0732 18.5605C18.8574 18.8991 18.7495 19.4365 18.7495 20.1729V22.5786C18.7495 23.3234 18.8574 23.8651 19.0732 24.2036C19.2933 24.5422 19.6149 24.7114 20.0381 24.7114C20.4528 24.7114 20.7681 24.5422 20.9839 24.2036C21.1997 23.8651 21.3076 23.3234 21.3076 22.5786V20.1729Z" fill="white"/>
</svg>
