<svg width="34" height="39" viewBox="0 0 34 39" fill="none" xmlns="http://www.w3.org/2000/svg">
<path d="M3.65701 10.5597C4.10788 10.0023 4.92189 9.9119 5.48345 10.3569C6.04501 10.8019 6.14542 11.6169 5.70875 12.1856C3.69442 14.7254 2.60336 17.8777 2.61546 21.1227C2.61374 28.8681 8.71332 35.232 16.4318 35.5379C24.1503 35.8437 30.7317 29.9822 31.3396 22.2609C31.9474 14.5395 26.3647 7.71529 18.6939 6.80309L20.4651 8.32605C20.9919 8.8021 21.0442 9.61236 20.5831 10.1526C20.1221 10.6928 19.3156 10.7661 18.7652 10.3178L14.1883 6.38416C13.8983 6.13505 13.7313 5.77125 13.7313 5.38831C13.7313 5.00536 13.8983 4.64156 14.1883 4.39245L18.7652 0.458849C19.1181 0.13984 19.6159 0.0379372 20.0654 0.192683C20.5148 0.347428 20.8451 0.734464 20.9282 1.20361C21.0113 1.67275 20.834 2.15015 20.4651 2.45056L18.4912 4.1466C27.6511 4.95549 34.5092 12.9211 33.9703 22.1254C33.4314 31.3297 25.691 38.436 16.4996 38.1647C7.30824 37.8934 -0.00191879 30.3429 0.000114441 21.1227C-0.0138664 17.2873 1.27598 13.5615 3.65701 10.5597Z" fill="white"/>
<path d="M10.5371 24.8892L12.0986 24.6987V18.4399H10.5181V17.3799L13.9458 16.7578V24.6987L15.5073 24.8892V26H10.5371V24.8892Z" fill="white"/>
<path d="M23.1548 22.4009C23.1548 23.6239 22.8734 24.5527 22.3105 25.1875C21.752 25.818 20.9945 26.1333 20.0381 26.1333C19.0732 26.1333 18.3094 25.818 17.7466 25.1875C17.1838 24.5527 16.9023 23.6239 16.9023 22.4009V20.3633C16.9023 19.1445 17.1816 18.2178 17.7402 17.583C18.3031 16.944 19.0648 16.6245 20.0254 16.6245C20.9818 16.6245 21.7414 16.944 22.3042 17.583C22.8713 18.2178 23.1548 19.1445 23.1548 20.3633V22.4009ZM21.3076 20.1729C21.3076 19.4408 21.1976 18.9054 20.9775 18.5669C20.7575 18.2241 20.4401 18.0527 20.0254 18.0527C19.6064 18.0527 19.2891 18.222 19.0732 18.5605C18.8574 18.8991 18.7495 19.4365 18.7495 20.1729V22.5786C18.7495 23.3234 18.8574 23.8651 19.0732 24.2036C19.2933 24.5422 19.6149 24.7114 20.0381 24.7114C20.4528 24.7114 20.7681 24.5422 20.9839 24.2036C21.1997 23.8651 21.3076 23.3234 21.3076 22.5786V20.1729Z" fill="white"/>
</svg>
